<?xml version="1.0" encoding="UTF-8"?>
<svg width="44px" height="43px" viewBox="0 0 44 43" version="1.1" xmlns="http://www.w3.org/2000/svg" xmlns:xlink="http://www.w3.org/1999/xlink">
    <!-- Generator: Sketch 59 (86127) - https://sketch.com -->
    <title>Shape</title>
    <desc>Created with Sketch.</desc>
    <g id="Page-1" stroke="none" stroke-width="1" fill="none" fill-rule="evenodd">
        <path d="M32.586,22.221 C33.03,21.777 33.03,21.078 32.586,20.634 C32.157,20.19 31.443,20.19 31.015,20.634 L22.968,28.666 L22.968,2.127 C22.968,1.508 22.476,1 21.857,1 C21.238,1 20.73,1.508 20.73,2.127 L20.73,28.666 L12.699,20.634 C12.255,20.19 11.54,20.19 11.112,20.634 C10.668,21.078 10.668,21.777 11.112,22.221 L21.064,32.173 C21.493,32.602 22.207,32.602 22.651,32.173 L32.586,22.221 Z M40.474,29.507 C40.474,28.888 40.966,28.396 41.585,28.396 C42.204,28.396 42.712,28.888 42.712,29.507 L42.712,40.427 C42.712,41.046 42.204,41.554 41.585,41.554 L2.111,41.554 C1.492,41.554 1,41.046 1,40.427 L1,29.507 C1,28.888 1.492,28.396 2.111,28.396 C2.73,28.396 3.238,28.888 3.238,29.507 L3.238,39.316 L40.474,39.316 L40.474,29.507 Z" id="Shape" stroke="#373AB8" stroke-width="1.8" fill="#373AB8" fill-rule="nonzero"></path>
    </g>
</svg>