<svg width="300" height="320" viewBox="0 0 300 320" fill="none" xmlns="http://www.w3.org/2000/svg">
  <defs>
    <clipPath id="topClip"><rect x="6" y="6" width="288" height="148" rx="8"/></clipPath>
    <clipPath id="bottomClip"><rect x="6" y="168" width="288" height="146" rx="8"/></clipPath>
  </defs>
  <!-- TOP: Customer service tool (greyscale + orange) -->
  <rect x="6" y="6" width="288" height="148" rx="8" fill="#F6F6F6" stroke="#D0CCC6" stroke-width="1.5"/>
  <g clip-path="url(#topClip)">
  <rect x="6" y="6" width="288" height="20" rx="8" fill="#EDECEA"/>
  <rect x="6" y="20" width="288" height="6" fill="#EDECEA"/>
  <circle cx="18" cy="16" r="3" fill="#FF6058"/>
  <circle cx="28" cy="16" r="3" fill="#FFBD2E"/>
  <circle cx="38" cy="16" r="3" fill="#27CA40"/>
  <!-- Sidebar -->
  <rect x="6" y="26" width="44" height="128" fill="#FBFBFB"/>
  <line x1="50" y1="26" x2="50" y2="154" stroke="#E8E5E0" stroke-width="1"/>
  <rect x="12" y="32" width="30" height="4" rx="2" fill="#D56C00"/>
  <rect x="12" y="42" width="24" height="3" rx="1.5" fill="#D0CCC6"/>
  <rect x="12" y="50" width="28" height="3" rx="1.5" fill="#D56C00" opacity="0.5"/>
  <rect x="12" y="58" width="20" height="3" rx="1.5" fill="#D0CCC6"/>
  <!-- Customer panel -->
  <rect x="54" y="30" width="60" height="120" fill="white"/>
  <line x1="114" y1="30" x2="114" y2="154" stroke="#E8E5E0" stroke-width="1"/>
  <circle cx="84" cy="42" r="8" fill="#E8E5E0"/>
  <rect x="70" y="56" width="28" height="4" rx="2" fill="#35363A"/>
  <rect x="62" y="64" width="44" height="3" rx="1.5" fill="#9A958E"/>
  <line x1="58" y1="74" x2="110" y2="74" stroke="#E8E5E0" stroke-width="1"/>
  <rect x="60" y="80" width="20" height="3" rx="1.5" fill="#9A958E"/>
  <rect x="60" y="88" width="40" height="3" rx="1.5" fill="#35363A"/>
  <rect x="60" y="98" width="20" height="3" rx="1.5" fill="#9A958E"/>
  <rect x="60" y="106" width="34" height="3" rx="1.5" fill="#35363A"/>
  <!-- Chat -->
  <rect x="230" y="34" width="50" height="16" rx="6" fill="#FDF3E8"/>
  <rect x="238" y="39" width="34" height="4" rx="2" fill="#D56C00"/>
  <rect x="122" y="58" width="56" height="16" rx="6" fill="#F0EFED"/>
  <rect x="130" y="63" width="36" height="4" rx="2" fill="#9A958E"/>
  <rect x="224" y="82" width="56" height="22" rx="6" fill="#FDF3E8"/>
  <rect x="232" y="88" width="38" height="4" rx="2" fill="#D56C00"/>
  <rect x="232" y="96" width="26" height="4" rx="2" fill="#D56C00"/>
  <rect x="122" y="112" width="60" height="16" rx="6" fill="#F0EFED"/>
  <rect x="130" y="117" width="40" height="4" rx="2" fill="#9A958E"/>
  <!-- Input -->
  <rect x="120" y="134" width="170" height="16" rx="0" fill="#FBFBFB"/>
  <line x1="120" y1="134" x2="290" y2="134" stroke="#E8E5E0" stroke-width="1"/>
  <rect x="126" y="138" width="90" height="10" rx="5" fill="white" stroke="#D0CCC6" stroke-width="1"/>
  <rect x="258" y="138" width="28" height="10" rx="5" fill="#D56C00"/>

  </g>

  <!-- BOTTOM: API terminal -->
  <rect x="6" y="168" width="288" height="146" rx="8" fill="#1E1E2E" stroke="#3A3A4A" stroke-width="1.5"/>
  <g clip-path="url(#bottomClip)">
  <rect x="6" y="168" width="288" height="20" rx="8" fill="#2D2D3D"/>
  <rect x="6" y="182" width="288" height="6" fill="#2D2D3D"/>
  <circle cx="18" cy="178" r="3" fill="#FF6058"/>
  <circle cx="28" cy="178" r="3" fill="#FFBD2E"/>
  <circle cx="38" cy="178" r="3" fill="#27CA40"/>
  <rect x="56" y="172" width="40" height="10" rx="3" fill="#1E1E2E"/>
  <rect x="62" y="175" width="28" height="4" rx="2" fill="#8888AA"/>
  <!-- Code -->
  <rect x="16" y="196" width="16" height="4" rx="2" fill="#25D366"/>
  <rect x="36" y="196" width="20" height="4" rx="2" fill="#DCDCAA"/>
  <rect x="60" y="196" width="90" height="4" rx="2" fill="#CE9178"/>
  <rect x="26" y="208" width="12" height="4" rx="2" fill="#D4D4D4"/>
  <rect x="42" y="208" width="110" height="4" rx="2" fill="#CE9178"/>
  <rect x="26" y="220" width="12" height="4" rx="2" fill="#D4D4D4"/>
  <rect x="42" y="220" width="80" height="4" rx="2" fill="#CE9178"/>
  <rect x="26" y="232" width="12" height="4" rx="2" fill="#D4D4D4"/>
  <rect x="42" y="232" width="8" height="4" rx="2" fill="#D4D4D4"/>
  <rect x="36" y="244" width="44" height="4" rx="2" fill="#9CDCFE"/>
  <rect x="84" y="244" width="60" height="4" rx="2" fill="#CE9178"/>
  <rect x="36" y="256" width="30" height="4" rx="2" fill="#9CDCFE"/>
  <rect x="70" y="256" width="46" height="4" rx="2" fill="#CE9178"/>
  <rect x="36" y="268" width="36" height="4" rx="2" fill="#9CDCFE"/>
  <rect x="76" y="268" width="8" height="4" rx="2" fill="#D4D4D4"/>
  <rect x="26" y="280" width="8" height="4" rx="2" fill="#D4D4D4"/>
  <!-- Response -->
  <rect x="16" y="294" width="16" height="4" rx="2" fill="#25D366"/>
  <rect x="36" y="294" width="44" height="4" rx="2" fill="#D4D4D4"/>
  <rect x="84" y="294" width="24" height="4" rx="2" fill="#25D366"/>
  </g>
</svg>