<svg width="300" height="320" viewBox="0 0 300 320" fill="none" xmlns="http://www.w3.org/2000/svg">
  <defs>
    <clipPath id="browserClip2"><rect x="6" y="6" width="288" height="308" rx="8"/></clipPath>
  </defs>
  <!-- Browser -->
  <rect x="6" y="6" width="288" height="308" rx="8" fill="#F6F6F6" stroke="#D0CCC6" stroke-width="1.5"/>
  <g clip-path="url(#browserClip2)">
  <!-- Toolbar -->
  <rect x="6" y="6" width="288" height="24" rx="8" fill="#EDECEA"/>
  <rect x="6" y="22" width="288" height="8" fill="#EDECEA"/>
  <circle cx="18" cy="18" r="4" fill="#FF6058"/>
  <circle cx="30" cy="18" r="4" fill="#FFBD2E"/>
  <circle cx="42" cy="18" r="4" fill="#27CA40"/>
  <!-- Sidebar -->
  <rect x="6" y="30" width="50" height="284" fill="#FBFBFB"/>
  <line x1="56" y1="30" x2="56" y2="314" stroke="#E8E5E0" stroke-width="1"/>
  <rect x="14" y="38" width="34" height="5" rx="2.5" fill="#1877F2"/>
  <rect x="14" y="52" width="28" height="4" rx="2" fill="#D0CCC6"/>
  <rect x="14" y="62" width="32" height="4" rx="2" fill="#1877F2"/>
  <rect x="14" y="72" width="24" height="4" rx="2" fill="#D0CCC6"/>
  <!-- Conversation list -->
  <rect x="62" y="36" width="30" height="5" rx="2.5" fill="#35363A"/>
  <!-- Items -->
  <rect x="62" y="50" width="70" height="34" rx="4" fill="#E8F4FD"/>
  <circle cx="74" cy="62" r="7" fill="#D0CCC6"/>
  <rect x="86" y="56" width="36" height="4" rx="2" fill="#35363A"/>
  <rect x="86" y="66" width="40" height="3" rx="1.5" fill="#9A958E"/>
  <rect x="62" y="90" width="70" height="34" rx="4" fill="white" stroke="#E8E5E0" stroke-width="1"/>
  <circle cx="74" cy="102" r="7" fill="#D0CCC6"/>
  <rect x="86" y="96" width="32" height="4" rx="2" fill="#35363A"/>
  <rect x="86" y="106" width="38" height="3" rx="1.5" fill="#9A958E"/>
  <rect x="62" y="130" width="70" height="34" rx="4" fill="white" stroke="#E8E5E0" stroke-width="1"/>
  <circle cx="74" cy="142" r="7" fill="#D0CCC6"/>
  <rect x="86" y="136" width="28" height="4" rx="2" fill="#35363A"/>
  <rect x="86" y="146" width="36" height="3" rx="1.5" fill="#9A958E"/>
  <!-- Chat area -->
  <line x1="138" y1="30" x2="138" y2="314" stroke="#E8E5E0" stroke-width="1"/>
  <!-- Chat header -->
  <circle cx="152" cy="44" r="7" fill="#D0CCC6"/>
  <rect x="164" y="40" width="40" height="4" rx="2" fill="#35363A"/>
  <line x1="138" y1="56" x2="288" y2="56" stroke="#E8E5E0" stroke-width="1"/>
  <!-- Messages -->
  <rect x="220" y="66" width="60" height="20" rx="6" fill="#E8F4FD"/>
  <rect x="228" y="73" width="40" height="4" rx="2" fill="#6BA3C7"/>
  <rect x="148" y="96" width="70" height="20" rx="6" fill="#F0EFED"/>
  <rect x="156" y="103" width="46" height="4" rx="2" fill="#9A958E"/>
  <rect x="210" y="126" width="70" height="28" rx="6" fill="#E8F4FD"/>
  <rect x="218" y="134" width="50" height="4" rx="2" fill="#6BA3C7"/>
  <rect x="218" y="143" width="34" height="4" rx="2" fill="#6BA3C7"/>
  <rect x="148" y="164" width="56" height="20" rx="6" fill="#F0EFED"/>
  <rect x="156" y="171" width="36" height="4" rx="2" fill="#9A958E"/>
  <rect x="220" y="194" width="60" height="20" rx="6" fill="#E8F4FD"/>
  <rect x="228" y="201" width="44" height="4" rx="2" fill="#6BA3C7"/>
  <rect x="148" y="224" width="80" height="28" rx="6" fill="#F0EFED"/>
  <rect x="156" y="232" width="56" height="4" rx="2" fill="#9A958E"/>
  <rect x="156" y="241" width="40" height="4" rx="2" fill="#9A958E"/>
  <!-- Input -->
  <rect x="144" y="284" width="140" height="20" rx="10" fill="white" stroke="#D0CCC6" stroke-width="1"/>
  <rect x="156" y="291" width="40" height="4" rx="2" fill="#D0CCC6"/>
  </g>
</svg>