<svg width="300" height="320" viewBox="0 0 300 320" fill="none" xmlns="http://www.w3.org/2000/svg">
  <defs>
    <clipPath id="browserClip3"><rect x="6" y="6" width="288" height="308" rx="8"/></clipPath>
  </defs>
  <!-- Browser -->
  <rect x="6" y="6" width="288" height="308" rx="8" fill="#F6F6F6" stroke="#D0CCC6" stroke-width="1.5"/>
  <g clip-path="url(#browserClip3)">
  <!-- Toolbar -->
  <rect x="6" y="6" width="288" height="24" rx="8" fill="#EDECEA"/>
  <rect x="6" y="22" width="288" height="8" fill="#EDECEA"/>
  <circle cx="18" cy="18" r="4" fill="#FF6058"/>
  <circle cx="30" cy="18" r="4" fill="#FFBD2E"/>
  <circle cx="42" cy="18" r="4" fill="#27CA40"/>
  <!-- Sidebar -->
  <rect x="6" y="30" width="50" height="284" fill="#252535"/>
  <rect x="14" y="38" width="34" height="5" rx="2.5" fill="#6A6A8A"/>
  <rect x="14" y="52" width="28" height="4" rx="2" fill="#4A4A5A"/>
  <rect x="14" y="62" width="24" height="4" rx="2" fill="#25D366"/>
  <rect x="14" y="72" width="30" height="4" rx="2" fill="#4A4A5A"/>
  <rect x="14" y="82" width="26" height="4" rx="2" fill="#4A4A5A"/>
  <!-- Header -->
  <rect x="62" y="36" width="56" height="6" rx="3" fill="#35363A"/>
  <rect x="240" y="34" width="42" height="16" rx="5" fill="#25D366"/>
  <!-- Campaign name -->
  <rect x="62" y="60" width="50" height="4" rx="2" fill="#9A958E"/>
  <rect x="62" y="70" width="220" height="22" rx="5" fill="white" stroke="#D0CCC6" stroke-width="1"/>
  <rect x="72" y="78" width="70" height="4" rx="2" fill="#C4C0BA"/>
  <!-- Recipients -->
  <rect x="62" y="102" width="44" height="4" rx="2" fill="#9A958E"/>
  <rect x="62" y="112" width="220" height="22" rx="5" fill="white" stroke="#D0CCC6" stroke-width="1"/>
  <rect x="72" y="118" width="44" height="12" rx="6" fill="#F0EFED" stroke="#D0CCC6" stroke-width="0.5"/>
  <rect x="122" y="118" width="36" height="12" rx="6" fill="#F0EFED" stroke="#D0CCC6" stroke-width="0.5"/>
  <!-- Template -->
  <rect x="62" y="144" width="50" height="4" rx="2" fill="#9A958E"/>
  <rect x="62" y="154" width="220" height="22" rx="5" fill="white" stroke="#D0CCC6" stroke-width="1"/>
  <rect x="72" y="162" width="60" height="4" rx="2" fill="#C4C0BA"/>
  <!-- Preview -->
  <rect x="62" y="186" width="56" height="4" rx="2" fill="#9A958E"/>
  <rect x="62" y="196" width="220" height="76" rx="6" fill="white" stroke="#D0CCC6" stroke-width="1"/>
  <rect x="76" y="208" width="150" height="48" rx="8" fill="#E7FFDB"/>
  <rect x="86" y="218" width="100" height="4" rx="2" fill="#7CB87C"/>
  <rect x="86" y="228" width="120" height="4" rx="2" fill="#7CB87C"/>
  <rect x="86" y="240" width="50" height="10" rx="5" fill="#25D366"/>
  <!-- Buttons -->
  <rect x="62" y="284" width="60" height="22" rx="6" fill="#F6F6F6" stroke="#D0CCC6" stroke-width="1"/>
  <rect x="74" y="292" width="36" height="4" rx="2" fill="#9A958E"/>
  <rect x="222" y="284" width="60" height="22" rx="6" fill="#25D366"/>
  <rect x="238" y="292" width="28" height="4" rx="2" fill="white"/>
  </g>
</svg>